{"title":"Point Break 2015 720p - HDRip - x264 5.1 - Zi$t - CTRC","uid":13825180,"size":818531652,"categoryP":"video","categoryS":"hd___movies","magnet":"?xt=urn:btih:cdb553fb973ce72162c9aa1ebb3ad86e94608198&amp;dn=Point+Break+2015+720p+-+HDRip+-+x264+5.1+-+Zi%24t+-+CTRC&amp;tr=udp%3A%2F%2Ftracker.leechers-paradise.org%3A6969&amp;tr=udp%3A%2F%2Fzer0day.ch%3A1337&amp;tr=udp%3A%2F%2Fopen.demonii.com%3A1337&amp;tr=udp%3A%2F%2Ftracker.coppersurfer.tk%3A6969&amp;tr=udp%3A%2F%2Fexodus.desync.com%3A6969","seeders":1,"leechers":2,"uploader":"Zist313","files":2,"time":1457688801,"description":"[center]\r\nGeneral\r\nComplete name               : Point Break 2015\r\nFormat                      : MPEG-4\r\nFormat profile              : Base Media\r\nCodec ID                    : isom\r\nFile size                   : 781 MiB\r\nDuration                    : 1h 49mn\r\nOverall bit rate mode       : Variable\r\nOverall bit rate            : 999 Kbps\r\nWriting application         : Lavf55.22.102\r\n\r\nVideo\r\nID                          : 1\r\nFormat                      : AVC\r\nFormat/Info                 : Advanced Video Codec\r\nFormat profile              :   \r\nFormat settings, CABAC      : Yes\r\nFormat settings, ReFrames   : 4 frames\r\nCodec ID                    : avc1\r\nCodec ID/Info               : Advanced Video Coding\r\nDuration                    : 1h 49mn\r\nBit rate                    : 900 Kbps\r\nWidth                       : 900 pixels\r\nHeight                      : 500 pixels\r\nDisplay aspect ratio        : 16:9\r\nFrame rate mode             : Constant\r\nFrame rate                  : 25.000 fps\r\nColor space                 : YUV\r\nChroma subsampling          : 4:2:0\r\nBit depth                   : 8 bits\r\nScan type                   : Progressive\r\nBits/(Pixel*Frame)          : 0.080\r\nStream size                 : 704 MiB (90%)\r\nWriting library             : x264 core 119\r\n\r\nAudio\r\nID                          : 2\r\nFormat                      : AAC\r\nFormat/Info                 : Advanced Audio Codec\r\nFormat profile              : LC\r\nCodec ID                    : 40\r\nDuration                    : 1h 49mn\r\nBit rate mode               : Variable\r\nBit rate                    : 92.3 Kbps\r\nMaximum bit rate            : 192 Kbps\r\nChannel(s)                  : 2 channels\r\nChannel(s)_Original         : 6 channels\r\nChannel positions           : Front: L C R, Side: L R, LFE\r\nSampling rate               : 48.0 KHz\r\nCompression mode            : Lossy\r\nStream size                 : 72.1 MiB (9%)\r\nLanguage                    : English\r\n[/center]","torrent":{"xt":"urn:btih:cdb553fb973ce72162c9aa1ebb3ad86e94608198","amp;dn":"Point+Break+2015+720p+-+HDRip+-+x264+5.1+-+Zi%24t+-+CTRC","amp;tr":["udp%3A%2F%2Ftracker.leechers-paradise.org%3A6969","udp%3A%2F%2Fzer0day.ch%3A1337","udp%3A%2F%2Fopen.demonii.com%3A1337","udp%3A%2F%2Ftracker.coppersurfer.tk%3A6969","udp%3A%2F%2Fexodus.desync.com%3A6969"],"infoHash":"cdb553fb973ce72162c9aa1ebb3ad86e94608198","infoHashBuffer":{"type":"Buffer","data":[205,181,83,251,151,60,231,33,98,201,170,30,187,58,216,110,148,96,129,152]},"announce":[],"urlList":[]}}